<svg width="309" height="309" viewBox="0 0 309 309" fill="none" xmlns="http://www.w3.org/2000/svg">
<path d="M154.5 0C69.1717 0 0 69.1717 0 154.5C0 239.828 69.1717 308.999 154.5 308.999C239.828 308.999 308.999 239.828 308.999 154.5C308.904 69.212 239.788 0.0963525 154.5 0Z" fill="#6C7E84"/>
<path d="M200.178 139.722L188.087 151.813V73.891C188.087 55.3416 173.05 40.3043 154.5 40.3043C135.951 40.3043 120.913 55.3416 120.913 73.891V151.719L108.822 139.627C96.7688 128.11 77.7892 128.11 65.7363 139.627C53.8409 151.526 53.8409 170.814 65.7363 182.713L140.205 257.182C148.075 265.049 160.831 265.049 168.701 257.182L243.17 182.713C255.065 170.814 255.065 151.526 243.17 139.627C231.104 128.196 212.193 128.238 200.178 139.722Z" fill="#FAFAFA"/>
</svg>
