<svg width="21" height="22" viewBox="0 0 21 22" fill="none" xmlns="http://www.w3.org/2000/svg">
<path d="M21 10.827C21 11.8418 20.1776 12.6643 19.1622 12.6643H12.339V19.4877C12.339 20.5028 11.5163 21.3253 10.5016 21.325C9.99415 21.325 9.53484 21.1197 9.20265 20.7873C8.87005 20.4545 8.66444 19.9954 8.66467 19.4882L8.66439 12.664H1.84044C1.33331 12.664 0.874366 12.4587 0.541493 12.1258C0.209442 11.7937 0.00396735 11.3344 0.00396735 10.827C0.00369308 9.81231 0.82614 8.98968 1.8414 8.98968H8.66467V2.16614C8.66467 1.15115 9.48757 0.32843 10.5024 0.32843C11.5168 0.328704 12.339 1.1506 12.3395 2.16545V8.98968H19.1635C20.1781 8.99023 20.9995 9.81231 21 10.827Z" fill="#126A40"/>
</svg>
